<svg xmlns="http://www.w3.org/2000/svg" viewBox="0 0 96.16 65.57">
  <path d="M22.82 0c-1.4 0-2.77.12-4.11.35-1.28.23-2.45.58-3.5 1.05-.99.4-1.8.96-2.45 1.66a3.6 3.6 0 00-.87 2.36c0 .64.2 1.14.61 1.49.41.29.82.43 1.23.43.4 0 .87-.11 1.4-.35l2-1.13c.82-.41 1.55-.67 2.2-.79.7-.17 1.45-.26 2.27-.26 1.04 0 2.41.29 4.1.87 1.75.59 3.62 1.78 5.6 3.59a26.05 26.05 0 00-4.46 6.64 17.48 17.48 0 00-1.66 7.43c0 1.34.03 2.5.09 3.5.05 1 .14 1.92.26 2.8a41.72 41.72 0 00-9.53 3.5 36.9 36.9 0 00-8.13 5.68 28.08 28.08 0 00-5.77 7.43A18.78 18.78 0 000 54.91c0 1.74.38 3.29 1.14 4.63a9.52 9.52 0 003.14 3.32c1.4.88 3.03 1.55 4.9 2.01 1.92.47 4.02.7 6.3.7 4.25 0 8.16-.79 11.71-2.36a32.7 32.7 0 009.36-6.03c2.62-2.5 4.66-5.3 6.12-8.4a21.43 21.43 0 002.27-9.35c0-.82-.06-1.6-.18-2.36-.11-.82-.47-3-1.26-5.16-1.29-3.5-2.12-5.56-2.58-6.73a9.44 9.44 0 01-.7-3.32c0-.94.06-1.84.17-2.71.12-.94.32-1.81.61-2.63a17 17 0 007.52 1.58c1.46 0 2.92-.26 4.37-.79a12.42 12.42 0 006.91-5.86 10.45 10.45 0 001.14-4.9c0-2.15-.85-3.78-2.54-4.89C56.77.56 54.61 0 51.93 0c-2.8 0-5.56.4-8.3 1.22a26.45 26.45 0 00-7.6 3.76 22.67 22.67 0 00-6.22-3.76 18.72 18.72 0 00-7-1.22zM51.5 6.56c.81 0 1.42.23 1.83.7.47.46.7 1.02.7 1.66 0 .4-.17.84-.52 1.3-.3.42-.67.8-1.14 1.15-.47.35-1 .64-1.57.87-.59.23-1.17.35-1.75.35-.93 0-1.84-.12-2.71-.35-.82-.3-1.63-.67-2.45-1.14 1.05-1.4 2.24-2.5 3.58-3.32a7.68 7.68 0 014.03-1.22zm19.24 15.36l-3.97 8.83a3.3 3.3 0 00-1.53-.32c-1.01 0-2.03.41-3.04 1.24-1.02.82-1.97 2.18-2.84 4.1l-.46.98a9.6 9.6 0 00-.61 1.72c-.13.5-.2.92-.2 1.28 0 .75.23 1.3.68 1.66.46.34 1 .5 1.63.5.4 0 .74 0 1.05-.04a4.55 4.55 0 001.47-.43c.21-.1.42-.24.61-.4.13.25.28.46.46.64.2.16 1.87.39 2.59-1.36 2.09-5.12 7.67-18.4 7.67-18.4zm-11.48.7a4.8 4.8 0 00-2.58.79c-.36.24-.65.52-.88.85-.22.3-.33.62-.33.94 0 .4.2.73.6.97.43.22.9.33 1.43.33a5.43 5.43 0 002.46-.67c.38-.22.7-.48.94-.78.26-.33.4-.68.4-1.06 0-.43-.22-.76-.64-1-.4-.25-.87-.37-1.4-.37zm.37 5.08l-5.6.36-5.78 12.57h-1.38l-.83 1.85h1.42l-5.24 11.36c-.13.26-.23.54-.3.82-.04.27-.06.5-.06.7 0 .63.2 1.18.63 1.64.44.47 1.03.7 1.77.7.88 0 1.84-.18 2.87-.53a16.4 16.4 0 002.97-1.35c.52-.32 1-.65 1.46-1l-.01.24c0 .81.32 1.46.95 1.94.64.47 1.76.7 3.37.7 1 0 1.94-.1 2.8-.27.85-.2 1.66-.59 2.4-1.18.77-.6 1.5-1.46 2.21-2.6.7-1.15 1.43-2.68 2.18-4.59a7.74 7.74 0 001.74.17c1 0 1.8-.2 2.4-.6a4.39 4.39 0 001.59-1.87l1.05.62c.22.13.38.23.47.3.1.04.16.1.16.2a3 3 0 01-.2.72c-.13.35-.43.96-.89 1.81l-.69 1.36-.63 1.38c-.17.44-.33.87-.46 1.28-.1.4-.16.74-.16 1.03 0 .7.2 1.25.6 1.64.39.4.98.6 1.77.6.88 0 1.84-.18 2.87-.53a15.2 15.2 0 004.75-2.59l-.02.35c0 .61.12 1.1.36 1.48.24.35.6.63 1.06.83.46.2 1.02.31 1.68.36.68.06 1.46.1 2.34.1 1.62 0 3.06-.23 4.31-.7 1.26-.46 2.5-1.14 3.76-2.04a9.84 9.84 0 001.75-1.48c.48-.53.84-1.05 1.09-1.55l-1.03-1.29c-.37.66-.9 1.28-1.58 1.85a12.32 12.32 0 01-7.74 2.87c-.82 0-1.22-.3-1.22-.9 0-.26.06-.59.2-.98.15-.42.36-.91.62-1.48a23.85 23.85 0 004.22-.56c.73-.18 1.38-.41 1.98-.7.61-.3 1.1-.69 1.45-1.15.5-.66.83-1.34.99-2.04.17-.7.26-1.33.26-1.88 0-.33-.07-.63-.2-.9a1.39 1.39 0 00-.62-.65c-.31-.18-.75-.3-1.32-.4-.55-.1-1.25-.16-2.11-.16-1.12 0-2.1.09-2.93.26a6 6 0 00-3.79 2.4c-.46.62-.9 1.38-1.29 2.28l-1.1 2.47c-.17.26-.39.54-.66.83-.4.4-.85.77-1.36 1.12-.48.35-.97.65-1.48.89-.48.22-.91.33-1.28.33-.36 0-.53-.16-.53-.46 0-.36.1-.77.3-1.26.2-.5.41-1 .65-1.48.27-.5.5-.97.7-1.38.2-.44.3-.8.3-1.06 0-.17-.08-.37-.24-.6a1.83 1.83 0 00-.69-.65l-6.72-4.05-.56 1.22c-.2.4-.43.75-.7 1.08-.26.33-.54.6-.85.83-.31.2-.64.3-.99.3h-.3a6.06 6.06 0 00-.3-.07c.4-.86.6-1.6.6-2.21 0-.57-.18-1.01-.53-1.32-.35-.3-.9-.46-1.65-.46-1.16 0-2.14.36-2.93 1.09a8.35 8.35 0 00-1.35-.1 5.42 5.42 0 00-3.53 1.15c-.52.4-1.04.94-1.54 1.62-.49.68-.96 1.51-1.42 2.5l-1.1 2.4a7.2 7.2 0 01-.52.6 10.03 10.03 0 01-2.93 2.08c-.5.24-.96.36-1.35.36-.22 0-.33-.09-.33-.26 0-.14.05-.31.16-.53l5.1-11h1.5l.82-1.85h-1.49zm5.94 4.55c.21 0 .37.08.45.22l-3.05 6.8c-.25.55-.57.83-.96.83-.22 0-.32-.13-.32-.38 0-.16.07-.38.21-.67l2.62-5.97c.15-.32.3-.53.46-.64a1 1 0 01.59-.19zm-38.12 4.47c.35 1.17.64 2.19.88 3.06.23.82.4 1.57.52 2.27.18.7.26 1.34.26 1.93.06.58.1 1.16.1 1.75 0 1.22-.27 2.62-.8 4.2a15.66 15.66 0 01-2.36 4.45 14.1 14.1 0 01-4.02 3.58c-1.57.94-3.44 1.4-5.6 1.4a4.32 4.32 0 01-3.58-1.66 6.52 6.52 0 01-1.31-4.02c0-2.16.44-4.1 1.31-5.86a16.7 16.7 0 013.5-4.8 25.71 25.71 0 015.16-3.68 38.42 38.42 0 015.94-2.62zm36.62 7.83c.2 0 .33.08.4.23.09.13.13.3.13.53 0 .17-.03.35-.1.52-.04.18-.1.32-.16.43-.7 0-1.06-.32-1.06-.95 0-.5.26-.76.8-.76zm24.87 1.32c.42 0 .62.14.62.42a4.13 4.13 0 01-.98 2.7c-.31.36-.68.64-1.12.86-.42.22-.87.36-1.35.4l1.44-3.1c.25-.53.47-.87.66-1.02.22-.18.47-.26.73-.26zm-28.43.03a2.59 2.59 0 00.1 1.28c.11.25.28.43.5.56l-3.07 6.92c-.13.31-.33.55-.6.73a1.3 1.3 0 01-.68.23c-.38 0-.56-.2-.56-.63 0-.2.05-.41.16-.65l3.03-6.92c.2-.49.36-.83.5-1.03.15-.22.36-.38.62-.49z"/>
</svg>