<svg xmlns="http://www.w3.org/2000/svg" viewBox="0 0 22 22">
   <path d="M8.17 0A8.18 8.18 0 0 0 0 8.17c0 4.5 3.67 8.17 8.17 8.17 2.07 0 3.96-.8 5.4-2.08l1.28 1.28c-.54.86-.45 2.03.3 2.78l3.03 3.03c.86.87 2.3.87 3.16 0h.01c.87-.87.87-2.3 0-3.18l-3.03-3.02a2.26 2.26 0 0 0-2.8-.3l-1.26-1.27a8.13 8.13 0 0 0 2.07-5.41c0-4.5-3.67-8.17-8.16-8.17zm0 1.92a6.23 6.23 0 0 1 6.24 6.25 6.23 6.23 0 0 1-6.24 6.25 6.23 6.23 0 0 1-6.25-6.25 6.23 6.23 0 0 1 6.25-6.25zm0 .96a5.3 5.3 0 0 0-5.29 5.29.48.48 0 1 0 .96 0c0-2.4 1.93-4.33 4.33-4.33a.48.48 0 1 0 0-.96zm8.58 13.53c.07 0 .15.03.22.1l3.02 3.02a.3.3 0 0 1 0 .45V20a.3.3 0 0 1-.46 0l-3.02-3.03c-.13-.13-.13-.3 0-.44a.34.34 0 0 1 .23-.11z"/>
</svg>